<svg version="1" xmlns="http://www.w3.org/2000/svg" width="1066.667" height="1066.667" viewBox="0 0 800.000000 800.000000"><path d="M382.5 21.1C256.4 25.9 138.8 96.7 72.9 207.8 45.4 254 28.4 306.1 22.5 361.7c-2.1 19.5-2.1 57.1 0 76.6 9.4 88.6 46.7 167 109.5 229.7 60.3 60.4 134.9 97.1 221 108.7 19 2.5 75.7 2.6 93.7 0 30.7-4.3 56.7-10.6 81.1-19.4 53-19.1 100-49 140.2-89.3 60.3-60.2 97.6-136.2 108.5-220.5 3.5-26.6 3.5-68.2 0-95C758.1 207.9 658.1 86 520.1 40c-44.6-14.9-87.5-20.7-137.6-18.9zM430 209.5c54.4 9 100.9 39.1 131.3 85 21.3 32.3 33.3 75.9 31.3 113.5-2.7 50-22.3 94.1-57 128.5-6.1 6.1-14.7 13.7-19.1 17-72.3 54.2-171.2 51.8-240-5.7-54.9-45.9-80.1-118.7-65-188.4 6.5-30 20.7-59.3 40.1-82.5 27.6-33.2 65.1-56 107.4-65.3 6.3-1.4 15.6-3 20.5-3.5 11.9-1.3 38.6-.6 50.5 1.4z"/></svg>